<svg version="1.1" xmlns="http://www.w3.org/2000/svg" xmlns:xlink="http://www.w3.org/1999/xlink" width="1726.919921875" height="992"><defs/><g><g transform="translate(-102,-158) scale(1,1)"><rect fill="#C0C0C0" stroke="none" x="607" y="455" width="98" height="120" opacity="0.2"/></g><g transform="translate(-102,-158) scale(1,1)"><rect fill="#ffffff" stroke="none" x="600" y="448" width="98" height="120"/></g><g transform="translate(-102,-158) scale(1,1)"><path fill="none" stroke="#000000" d="M 600 448 L 698 448 L 698 568 L 600 568 L 600 448 Z Z" stroke-miterlimit="10"/></g><g transform="translate(-102,-158) scale(1,1)"><path fill="none" stroke="#000000" d="M 600 473 L 698 473" stroke-miterlimit="10"/></g><g transform="translate(-102,-158) scale(1,1)"><path fill="none" stroke="#000000" d="M 600 511 L 698 511" stroke-miterlimit="10"/></g><g transform="translate(-102,-158) scale(1,1)"><g><path fill="none" stroke="none"/><text fill="#000000" stroke="none" font-family="Arial" font-size="13px" font-style="normal" font-weight="bold" text-decoration="none" x="620.464111328125" y="467.5">Geometry</text></g></g><g transform="translate(-102,-158) scale(1,1)"><g><path fill="none" stroke="none"/><text fill="#000000" stroke="none" font-family="Arial" font-size="13px" font-style="normal" font-weight="normal" text-decoration="none" x="605" y="490.5">+Mesh</text></g></g><g transform="translate(-102,-158) scale(1,1)"><g><path fill="none" stroke="none"/><text fill="#000000" stroke="none" font-family="Arial" font-size="13px" font-style="normal" font-weight="normal" text-decoration="none" x="605" y="505.5">+TypeCollision</text></g></g><g transform="translate(-102,-158) scale(1,1)"><rect fill="#C0C0C0" stroke="none" x="383" y="423" width="128" height="192" opacity="0.2"/></g><g transform="translate(-102,-158) scale(1,1)"><rect fill="#ffffff" stroke="none" x="376" y="416" width="128" height="192"/></g><g transform="translate(-102,-158) scale(1,1)"><path fill="none" stroke="#000000" d="M 376 416 L 504 416 L 504 608 L 376 608 L 376 416 Z Z" stroke-miterlimit="10"/></g><g transform="translate(-102,-158) scale(1,1)"><path fill="none" stroke="#000000" d="M 376 441 L 504 441" stroke-miterlimit="10"/></g><g transform="translate(-102,-158) scale(1,1)"><path fill="none" stroke="#000000" d="M 376 479 L 504 479" stroke-miterlimit="10"/></g><g transform="translate(-102,-158) scale(1,1)"><g><path fill="none" stroke="none"/><text fill="#000000" stroke="none" font-family="Arial" font-size="13px" font-style="normal" font-weight="bold" text-decoration="none" x="408.20458984375" y="435.5">UI Polygon</text></g></g><g transform="translate(-102,-158) scale(1,1)"><g><path fill="none" stroke="none"/><text fill="#000000" stroke="none" font-family="Arial" font-size="13px" font-style="normal" font-weight="normal" text-decoration="none" x="381" y="458.5">+Geometry</text></g></g><g transform="translate(-102,-158) scale(1,1)"><g><path fill="none" stroke="none"/><text fill="#000000" stroke="none" font-family="Arial" font-size="13px" font-style="normal" font-weight="normal" text-decoration="none" x="381" y="473.5">+SpriteAnimation</text></g></g><g transform="translate(-102,-158) scale(1,1)"><rect fill="#C0C0C0" stroke="none" x="167" y="423" width="109.39453125" height="192" opacity="0.2"/></g><g transform="translate(-102,-158) scale(1,1)"><rect fill="#ffffff" stroke="none" x="160" y="416" width="109.39453125" height="192"/></g><g transform="translate(-102,-158) scale(1,1)"><path fill="none" stroke="#000000" d="M 160 416 L 269.39453125 416 L 269.39453125 608 L 160 608 L 160 416 Z Z" stroke-miterlimit="10"/></g><g transform="translate(-102,-158) scale(1,1)"><path fill="none" stroke="#000000" d="M 160 441 L 269.39453125 441" stroke-miterlimit="10"/></g><g transform="translate(-102,-158) scale(1,1)"><path fill="none" stroke="#000000" d="M 160 524 L 269.39453125 524" stroke-miterlimit="10"/></g><g transform="translate(-102,-158) scale(1,1)"><g><path fill="none" stroke="none"/><text fill="#000000" stroke="none" font-family="Arial" font-size="13px" font-style="normal" font-weight="bold" text-decoration="none" x="168.813232421875" y="435.5">SpriteAnimation</text></g></g><g transform="translate(-102,-158) scale(1,1)"><g><path fill="none" stroke="none"/><text fill="#000000" stroke="none" font-family="Arial" font-size="13px" font-style="normal" font-weight="normal" text-decoration="none" x="165" y="458.5">+ImgTexture</text></g></g><g transform="translate(-102,-158) scale(1,1)"><g><path fill="none" stroke="none"/><text fill="#000000" stroke="none" font-family="Arial" font-size="13px" font-style="normal" font-weight="normal" text-decoration="none" x="165" y="473.5">+TextureBuffer</text></g></g><g transform="translate(-102,-158) scale(1,1)"><g><path fill="none" stroke="none"/><text fill="#000000" stroke="none" font-family="Arial" font-size="13px" font-style="normal" font-weight="normal" text-decoration="none" x="165" y="488.5">+FrameCount</text></g></g><g transform="translate(-102,-158) scale(1,1)"><g><path fill="none" stroke="none"/><text fill="#000000" stroke="none" font-family="Arial" font-size="13px" font-style="normal" font-weight="normal" text-decoration="none" x="165" y="503.5">+IntervalTime</text></g></g><g transform="translate(-102,-158) scale(1,1)"><g><path fill="none" stroke="none"/><text fill="#000000" stroke="none" font-family="Arial" font-size="13px" font-style="normal" font-weight="normal" text-decoration="none" x="165" y="518.5">+Effect</text></g></g><g transform="translate(-102,-158) scale(1,1)"><path fill="none" stroke="#000000" d="M 270 512 L 375 512" stroke-miterlimit="10"/></g><g transform="translate(-102,-158) scale(1,1)"><path fill="#FFFFFF" stroke="none" d="M 364.83732514237585 516.209517756016 L 375 512 L 364.83732514237585 507.790482243984 L 353 512"/></g><g transform="translate(-102,-158) scale(1,1)"><path fill="none" stroke="#000000" d="M 364.83732514237585 516.209517756016 L 375 512 L 364.83732514237585 507.790482243984 L 353 512 L 364.83732514237585 516.209517756016" stroke-miterlimit="10"/></g><g transform="translate(-102,-158) scale(1,1)"><g><path fill="none" stroke="none"/><text fill="#000000" stroke="none" font-family="Arial" font-size="13px" font-style="normal" font-weight="normal" text-decoration="none" x="296" y="532">+Animate</text></g></g><g transform="translate(-102,-158) scale(1,1)"><path fill="#ffffff" stroke="none" d="M 256 296 L 382.51708984375 296 L 392.51708984375 306 L 392.51708984375 344 L 256 344 L 256 296"/></g><g transform="translate(-102,-158) scale(1,1)"><path fill="none" stroke="#000000" d="M 256 296 L 382.51708984375 296 L 392.51708984375 306 L 392.51708984375 344 L 256 344 L 256 296 L 256 296" stroke-miterlimit="10"/></g><g transform="translate(-102,-158) scale(1,1)"><path fill="none" stroke="#000000" d="M 382.51708984375 296 L 382.51708984375 306 L 392.51708984375 306 L 382.51708984375 296" stroke-miterlimit="10"/></g><g transform="translate(-102,-158) scale(1,1)"><g><path fill="none" stroke="none"/><text fill="#000000" stroke="none" font-family="Arial" font-size="13px" font-style="normal" font-weight="normal" text-decoration="none" x="261" y="314">AnimationTechnique</text></g></g><g transform="translate(-102,-158) scale(1,1)"><path fill="none" stroke="#000000" d="M 322 512 L 324 346" stroke-miterlimit="10" stroke-dasharray="3"/></g><g transform="translate(-102,-158) scale(1,1)"><path fill="none" stroke="#000000" d="M 599 509 L 505 511" stroke-miterlimit="10"/></g><g transform="translate(-102,-158) scale(1,1)"><path fill="#000000" stroke="none" d="M 515.0708314078773 506.5752565323953 L 505 511 L 515.2499192916507 514.9923870697424 L 526.9950220612554 510.53202080720735"/></g><g transform="translate(-102,-158) scale(1,1)"><path fill="none" stroke="#000000" d="M 515.0708314078773 506.5752565323953 L 505 511 L 515.2499192916507 514.9923870697424 L 526.9950220612554 510.53202080720735 L 515.0708314078773 506.5752565323953" stroke-miterlimit="10"/></g><g transform="translate(-102,-158) scale(1,1)"><g><path fill="none" stroke="none"/><text fill="#000000" stroke="none" font-family="Arial" font-size="13px" font-style="normal" font-weight="normal" text-decoration="none" x="508" y="533">+Defines</text></g></g><g transform="translate(-102,-158) scale(1,1)"><rect fill="#C0C0C0" stroke="none" x="367" y="767" width="152" height="248" opacity="0.2"/></g><g transform="translate(-102,-158) scale(1,1)"><rect fill="#ffffff" stroke="none" x="360" y="760" width="152" height="248"/></g><g transform="translate(-102,-158) scale(1,1)"><path fill="none" stroke="#000000" d="M 360 760 L 512 760 L 512 1008 L 360 1008 L 360 760 Z Z" stroke-miterlimit="10"/></g><g transform="translate(-102,-158) scale(1,1)"><path fill="none" stroke="#000000" d="M 360 785 L 512 785" stroke-miterlimit="10"/></g><g transform="translate(-102,-158) scale(1,1)"><path fill="none" stroke="#000000" d="M 360 883 L 512 883" stroke-miterlimit="10"/></g><g transform="translate(-102,-158) scale(1,1)"><g><path fill="none" stroke="none"/><text fill="#000000" stroke="none" font-family="Arial" font-size="13px" font-style="normal" font-weight="bold" text-decoration="none" x="417.207763671875" y="779.5">Button</text></g></g><g transform="translate(-102,-158) scale(1,1)"><g><path fill="none" stroke="none"/><text fill="#000000" stroke="none" font-family="Arial" font-size="13px" font-style="normal" font-weight="normal" text-decoration="none" x="365" y="802.5">+UIPolygon</text></g></g><g transform="translate(-102,-158) scale(1,1)"><g><path fill="none" stroke="none"/><text fill="#000000" stroke="none" font-family="Arial" font-size="13px" font-style="normal" font-weight="normal" text-decoration="none" x="365" y="817.5">+EventHandler</text></g></g><g transform="translate(-102,-158) scale(1,1)"><g><path fill="none" stroke="none"/><text fill="#000000" stroke="none" font-family="Arial" font-size="13px" font-style="normal" font-weight="normal" text-decoration="none" x="365" y="832.5">+Reactant</text></g></g><g transform="translate(-102,-158) scale(1,1)"><g><path fill="none" stroke="none"/><text fill="#000000" stroke="none" font-family="Arial" font-size="13px" font-style="normal" font-weight="normal" text-decoration="none" x="365" y="847.5">+Product</text></g></g><g transform="translate(-102,-158) scale(1,1)"><g><path fill="none" stroke="none"/><text fill="#000000" stroke="none" font-family="Arial" font-size="13px" font-style="normal" font-weight="normal" text-decoration="none" x="365" y="862.5">+TextContent</text></g></g><g transform="translate(-102,-158) scale(1,1)"><g><path fill="none" stroke="none"/><text fill="#000000" stroke="none" font-family="Arial" font-size="13px" font-style="normal" font-weight="normal" text-decoration="none" x="365" y="877.5">+BID</text></g></g><g transform="translate(-102,-158) scale(1,1)"><path fill="none" stroke="#000000" d="M 439 609 L 437 759" stroke-miterlimit="10"/></g><g transform="translate(-102,-158) scale(1,1)"><path fill="#FFFFFF" stroke="none" d="M 428.8526933236919 738.5642129116056 L 437 759 L 445.6892678298642 738.788700571688"/></g><g transform="translate(-102,-158) scale(1,1)"><path fill="none" stroke="#000000" d="M 428.8526933236919 738.5642129116056 L 437 759 L 445.6892678298642 738.788700571688 L 428.8526933236919 738.5642129116056" stroke-miterlimit="10"/></g><g transform="translate(-102,-158) scale(1,1)"><g><path fill="none" stroke="none"/><text fill="#000000" stroke="none" font-family="Arial" font-size="13px" font-style="normal" font-weight="normal" text-decoration="none" x="451" y="691">+Geometry</text></g></g><g transform="translate(-102,-158) scale(1,1)"><rect fill="#C0C0C0" stroke="none" x="607" y="807" width="114.4345703125" height="44" opacity="0.2"/></g><g transform="translate(-102,-158) scale(1,1)"><rect fill="#ffffff" stroke="none" x="600" y="800" width="114.4345703125" height="44"/></g><g transform="translate(-102,-158) scale(1,1)"><path fill="none" stroke="#000000" d="M 600 800 L 714.4345703125 800 L 714.4345703125 844 L 600 844 L 600 800 Z Z" stroke-miterlimit="10"/></g><g transform="translate(-102,-158) scale(1,1)"><path fill="none" stroke="#000000" d="M 600 825 L 714.4345703125 825" stroke-miterlimit="10"/></g><g transform="translate(-102,-158) scale(1,1)"><path fill="none" stroke="#000000" d="M 600 835 L 714.4345703125 835" stroke-miterlimit="10"/></g><g transform="translate(-102,-158) scale(1,1)"><g><path fill="none" stroke="none"/><text fill="#000000" stroke="none" font-family="Arial" font-size="13px" font-style="normal" font-weight="bold" text-decoration="none" x="608.794189453125" y="819.5">Anon Productant</text></g></g><g transform="translate(-102,-158) scale(1,1)"><path fill="none" stroke="#000000" d="M 599 841 L 576 848 L 513 864" stroke-miterlimit="10"/></g><g transform="translate(-102,-158) scale(1,1)"><path fill="#FFFFFF" stroke="none" d="M 530.627576367202 850.8368487276617 L 513 864 L 534.772332311587 867.1568252586776"/></g><g transform="translate(-102,-158) scale(1,1)"><path fill="none" stroke="#000000" d="M 530.627576367202 850.8368487276617 L 513 864 L 534.772332311587 867.1568252586776 L 530.627576367202 850.8368487276617" stroke-miterlimit="10"/></g><g transform="translate(-102,-158) scale(1,1)"><g><path fill="none" stroke="none"/><text fill="#000000" stroke="none" font-family="Arial" font-size="13px" font-style="normal" font-weight="normal" text-decoration="none" x="600" y="789">+Previous context</text></g></g><g transform="translate(-102,-158) scale(1,1)"><rect fill="#C0C0C0" stroke="none" x="391" y="1103" width="100.72998046875" height="44" opacity="0.2"/></g><g transform="translate(-102,-158) scale(1,1)"><rect fill="#ffffff" stroke="none" x="384" y="1096" width="100.72998046875" height="44"/></g><g transform="translate(-102,-158) scale(1,1)"><path fill="none" stroke="#000000" d="M 384 1096 L 484.72998046875 1096 L 484.72998046875 1140 L 384 1140 L 384 1096 Z Z" stroke-miterlimit="10"/></g><g transform="translate(-102,-158) scale(1,1)"><path fill="none" stroke="#000000" d="M 384 1121 L 484.72998046875 1121" stroke-miterlimit="10"/></g><g transform="translate(-102,-158) scale(1,1)"><path fill="none" stroke="#000000" d="M 384 1131 L 484.72998046875 1131" stroke-miterlimit="10"/></g><g transform="translate(-102,-158) scale(1,1)"><g><path fill="none" stroke="none"/><text fill="#000000" stroke="none" font-family="Arial" font-size="13px" font-style="normal" font-weight="bold" text-decoration="none" x="391.36279296875" y="1115.5">Anon Reactant</text></g></g><g transform="translate(-102,-158) scale(1,1)"><path fill="none" stroke="#000000" d="M 435 1009 L 434 1095" stroke-miterlimit="10"/></g><g transform="translate(-102,-158) scale(1,1)"><g><path fill="none" stroke="none"/><text fill="#000000" stroke="none" font-family="Arial" font-size="13px" font-style="normal" font-weight="normal" text-decoration="none" x="438" y="1061">+OnEvent</text></g></g><g transform="translate(-102,-158) scale(1,1)"><path fill="#ffffff" stroke="none" d="M 112 1016 L 272 1016 L 282 1026 L 282 1091 L 112 1091 L 112 1016"/></g><g transform="translate(-102,-158) scale(1,1)"><path fill="none" stroke="#000000" d="M 112 1016 L 272 1016 L 282 1026 L 282 1091 L 112 1091 L 112 1016 L 112 1016" stroke-miterlimit="10"/></g><g transform="translate(-102,-158) scale(1,1)"><path fill="none" stroke="#000000" d="M 272 1016 L 272 1026 L 282 1026 L 272 1016" stroke-miterlimit="10"/></g><g transform="translate(-102,-158) scale(1,1)"><g><path fill="none" stroke="none"/><text fill="#000000" stroke="none" font-family="Arial" font-size="13px" font-style="normal" font-weight="normal" text-decoration="none" x="117" y="1034">Reactant is handler which</text><text fill="#000000" stroke="none" font-family="Arial" font-size="13px" font-style="normal" font-weight="normal" text-decoration="none" x="117" y="1047">will do work after button</text><text fill="#000000" stroke="none" font-family="Arial" font-size="13px" font-style="normal" font-weight="normal" text-decoration="none" x="117" y="1060">event</text></g></g><g transform="translate(-102,-158) scale(1,1)"><path fill="none" stroke="#000000" d="M 434 1052 L 284 1053" stroke-miterlimit="10" stroke-dasharray="3"/></g><g transform="translate(-102,-158) scale(1,1)"><rect fill="#C0C0C0" stroke="none" x="1143" y="831" width="131" height="128" opacity="0.2"/></g><g transform="translate(-102,-158) scale(1,1)"><rect fill="#ffffff" stroke="none" x="1136" y="824" width="131" height="128"/></g><g transform="translate(-102,-158) scale(1,1)"><path fill="none" stroke="#000000" d="M 1136 824 L 1267 824 L 1267 952 L 1136 952 L 1136 824 Z Z" stroke-miterlimit="10"/></g><g transform="translate(-102,-158) scale(1,1)"><path fill="none" stroke="#000000" d="M 1136 849 L 1267 849" stroke-miterlimit="10"/></g><g transform="translate(-102,-158) scale(1,1)"><path fill="none" stroke="#000000" d="M 1136 902 L 1267 902" stroke-miterlimit="10"/></g><g transform="translate(-102,-158) scale(1,1)"><g><path fill="none" stroke="none"/><text fill="#000000" stroke="none" font-family="Arial" font-size="13px" font-style="normal" font-weight="bold" text-decoration="none" x="1162.839599609375" y="843.5">MenuContext</text></g></g><g transform="translate(-102,-158) scale(1,1)"><g><path fill="none" stroke="none"/><text fill="#000000" stroke="none" font-family="Arial" font-size="13px" font-style="normal" font-weight="normal" text-decoration="none" x="1141" y="866.5">+ButtonList</text></g></g><g transform="translate(-102,-158) scale(1,1)"><g><path fill="none" stroke="none"/><text fill="#000000" stroke="none" font-family="Arial" font-size="13px" font-style="normal" font-weight="normal" text-decoration="none" x="1141" y="881.5">+RelativePositioning</text></g></g><g transform="translate(-102,-158) scale(1,1)"><g><path fill="none" stroke="none"/><text fill="#000000" stroke="none" font-family="Arial" font-size="13px" font-style="normal" font-weight="normal" text-decoration="none" x="1141" y="896.5">+AbsolutePositioning</text></g></g><g transform="translate(-102,-158) scale(1,1)"><path fill="none" stroke="#000000" d="M 1135 888 L 513 884" stroke-miterlimit="10" stroke-dasharray="3"/></g><g transform="translate(-102,-158) scale(1,1)"><path fill="none" stroke="#000000" d="M 523.1895350140009 879.8559227566983 L 513 884 L 523.1353944260372 888.2747841850382" stroke-miterlimit="10"/></g><g transform="translate(-102,-158) scale(1,1)"><g><path fill="none" stroke="none"/><text fill="#000000" stroke="none" font-family="Arial" font-size="13px" font-style="normal" font-weight="normal" text-decoration="none" x="798" y="907">+buttons</text></g></g><g transform="translate(-102,-158) scale(1,1)"><g><path fill="none" stroke="none"/><text fill="#000000" stroke="none" font-family="Arial" font-size="13px" font-style="normal" font-weight="normal" text-decoration="none" x="796" y="922">«include»</text></g></g><g transform="translate(-102,-158) scale(1,1)"><path fill="#ffffff" stroke="none" d="M 776 632 L 864 632 L 874 642 L 874 694 L 776 694 L 776 632"/></g><g transform="translate(-102,-158) scale(1,1)"><path fill="none" stroke="#000000" d="M 776 632 L 864 632 L 874 642 L 874 694 L 776 694 L 776 632 L 776 632" stroke-miterlimit="10"/></g><g transform="translate(-102,-158) scale(1,1)"><path fill="none" stroke="#000000" d="M 864 632 L 864 642 L 874 642 L 864 632" stroke-miterlimit="10"/></g><g transform="translate(-102,-158) scale(1,1)"><g><path fill="none" stroke="none"/><text fill="#000000" stroke="none" font-family="Arial" font-size="13px" font-style="normal" font-weight="normal" text-decoration="none" x="781" y="650">At least 1</text><text fill="#000000" stroke="none" font-family="Arial" font-size="13px" font-style="normal" font-weight="normal" text-decoration="none" x="781" y="663">button muste</text><text fill="#000000" stroke="none" font-family="Arial" font-size="13px" font-style="normal" font-weight="normal" text-decoration="none" x="781" y="676">be created for</text><text fill="#000000" stroke="none" font-family="Arial" font-size="13px" font-style="normal" font-weight="normal" text-decoration="none" x="781" y="689">menu</text></g></g><g transform="translate(-102,-158) scale(1,1)"><path fill="none" stroke="#000000" d="M 824 886 L 825 696" stroke-miterlimit="10" stroke-dasharray="3"/></g><g transform="translate(-102,-158) scale(1,1)"><rect fill="#C0C0C0" stroke="none" x="1271" y="175" width="160" height="72" opacity="0.2"/></g><g transform="translate(-102,-158) scale(1,1)"><rect fill="#ffffff" stroke="none" x="1264" y="168" width="160" height="72"/></g><g transform="translate(-102,-158) scale(1,1)"><path fill="none" stroke="#000000" d="M 1264 168 L 1424 168 L 1424 240 L 1264 240 L 1264 168 Z Z" stroke-miterlimit="10"/></g><g transform="translate(-102,-158) scale(1,1)"><path fill="none" stroke="#000000" d="M 1264 193 L 1424 193" stroke-miterlimit="10"/></g><g transform="translate(-102,-158) scale(1,1)"><path fill="none" stroke="#000000" d="M 1264 231 L 1424 231" stroke-miterlimit="10"/></g><g transform="translate(-102,-158) scale(1,1)"><g><path fill="none" stroke="none"/><text fill="#000000" stroke="none" font-family="Arial" font-size="13px" font-style="normal" font-weight="bold" text-decoration="none" x="1321.964111328125" y="187.5">Collider</text></g></g><g transform="translate(-102,-158) scale(1,1)"><g><path fill="none" stroke="none"/><text fill="#000000" stroke="none" font-family="Arial" font-size="13px" font-style="normal" font-weight="normal" text-decoration="none" x="1269" y="210.5">+ColliderFunction</text></g></g><g transform="translate(-102,-158) scale(1,1)"><g><path fill="none" stroke="none"/><text fill="#000000" stroke="none" font-family="Arial" font-size="13px" font-style="normal" font-weight="normal" text-decoration="none" x="1269" y="225.5">+InvokeEvent</text></g></g><g transform="translate(-102,-158) scale(1,1)"><rect fill="#C0C0C0" stroke="none" x="999" y="391" width="107.97900390625" height="136" opacity="0.2"/></g><g transform="translate(-102,-158) scale(1,1)"><rect fill="#ffffff" stroke="none" x="992" y="384" width="107.97900390625" height="136"/></g><g transform="translate(-102,-158) scale(1,1)"><path fill="none" stroke="#000000" d="M 992 384 L 1099.97900390625 384 L 1099.97900390625 520 L 992 520 L 992 384 Z Z" stroke-miterlimit="10"/></g><g transform="translate(-102,-158) scale(1,1)"><path fill="none" stroke="#000000" d="M 992 409 L 1099.97900390625 409" stroke-miterlimit="10"/></g><g transform="translate(-102,-158) scale(1,1)"><path fill="none" stroke="#000000" d="M 992 447 L 1099.97900390625 447" stroke-miterlimit="10"/></g><g transform="translate(-102,-158) scale(1,1)"><g><path fill="none" stroke="none"/><text fill="#000000" stroke="none" font-family="Arial" font-size="13px" font-style="normal" font-weight="bold" text-decoration="none" x="1000.102294921875" y="403.5">EventBroadcast</text></g></g><g transform="translate(-102,-158) scale(1,1)"><g><path fill="none" stroke="none"/><text fill="#000000" stroke="none" font-family="Arial" font-size="13px" font-style="normal" font-weight="normal" text-decoration="none" x="997" y="426.5">+MapOfObjects</text></g></g><g transform="translate(-102,-158) scale(1,1)"><g><path fill="none" stroke="none"/><text fill="#000000" stroke="none" font-family="Arial" font-size="13px" font-style="normal" font-weight="normal" text-decoration="none" x="997" y="441.5">+Some attribs</text></g></g><g transform="translate(-102,-158) scale(1,1)"><path fill="none" stroke="#000000" d="M 1101 453 L 1279 455" stroke-miterlimit="10"/></g><g transform="translate(-102,-158) scale(1,1)"><g><path fill="none" stroke="none"/><text fill="#000000" stroke="none" font-family="Arial" font-size="13px" font-style="normal" font-weight="normal" text-decoration="none" x="1136" y="444">+Event broadcast</text></g></g><g transform="translate(-102,-158) scale(1,1)"><rect fill="#C0C0C0" stroke="none" x="1287" y="335" width="136" height="256" opacity="0.2"/></g><g transform="translate(-102,-158) scale(1,1)"><rect fill="#ffffff" stroke="none" x="1280" y="328" width="136" height="256"/></g><g transform="translate(-102,-158) scale(1,1)"><path fill="none" stroke="#000000" d="M 1280 328 L 1416 328 L 1416 584 L 1280 584 L 1280 328 Z Z" stroke-miterlimit="10"/></g><g transform="translate(-102,-158) scale(1,1)"><path fill="none" stroke="#000000" d="M 1280 353 L 1416 353" stroke-miterlimit="10"/></g><g transform="translate(-102,-158) scale(1,1)"><path fill="none" stroke="#000000" d="M 1280 436 L 1416 436" stroke-miterlimit="10"/></g><g transform="translate(-102,-158) scale(1,1)"><g><path fill="none" stroke="none"/><text fill="#000000" stroke="none" font-family="Arial" font-size="13px" font-style="normal" font-weight="bold" text-decoration="none" x="1324.52001953125" y="347.5">RObject</text></g></g><g transform="translate(-102,-158) scale(1,1)"><g><path fill="none" stroke="none"/><text fill="#000000" stroke="none" font-family="Arial" font-size="13px" font-style="normal" font-weight="normal" text-decoration="none" x="1285" y="370.5">+Mesh</text></g></g><g transform="translate(-102,-158) scale(1,1)"><g><path fill="none" stroke="none"/><text fill="#000000" stroke="none" font-family="Arial" font-size="13px" font-style="normal" font-weight="normal" text-decoration="none" x="1285" y="385.5">+Id</text></g></g><g transform="translate(-102,-158) scale(1,1)"><g><path fill="none" stroke="none"/><text fill="#000000" stroke="none" font-family="Arial" font-size="13px" font-style="normal" font-weight="normal" text-decoration="none" x="1285" y="400.5">+Geoms</text></g></g><g transform="translate(-102,-158) scale(1,1)"><g><path fill="none" stroke="none"/><text fill="#000000" stroke="none" font-family="Arial" font-size="13px" font-style="normal" font-weight="normal" text-decoration="none" x="1285" y="415.5">+Effects</text></g></g><g transform="translate(-102,-158) scale(1,1)"><g><path fill="none" stroke="none"/><text fill="#000000" stroke="none" font-family="Arial" font-size="13px" font-style="normal" font-weight="normal" text-decoration="none" x="1285" y="430.5">+Liver</text></g></g><g transform="translate(-102,-158) scale(1,1)"><path fill="none" stroke="#000000" d="M 1346 327 L 1345 241" stroke-miterlimit="10"/></g><g transform="translate(-102,-158) scale(1,1)"><path fill="none" stroke="#000000" d="M 1349.3273958540367 251.11304331655245 L 1345 241 L 1340.9089294457003 251.2109324608354" stroke-miterlimit="10"/></g><g transform="translate(-102,-158) scale(1,1)"><g><path fill="none" stroke="none"/><text fill="#000000" stroke="none" font-family="Arial" font-size="13px" font-style="normal" font-weight="normal" text-decoration="none" x="1349" y="293">+My borders</text></g></g><g transform="translate(-102,-158) scale(1,1)"><rect fill="#C0C0C0" stroke="none" x="1775" y="303" width="50.919921875" height="44" opacity="0.2"/></g><g transform="translate(-102,-158) scale(1,1)"><rect fill="#ffffff" stroke="none" x="1768" y="296" width="50.919921875" height="44"/></g><g transform="translate(-102,-158) scale(1,1)"><path fill="none" stroke="#000000" d="M 1768 296 L 1818.919921875 296 L 1818.919921875 340 L 1768 340 L 1768 296 Z Z" stroke-miterlimit="10"/></g><g transform="translate(-102,-158) scale(1,1)"><path fill="none" stroke="#000000" d="M 1768 321 L 1818.919921875 321" stroke-miterlimit="10"/></g><g transform="translate(-102,-158) scale(1,1)"><path fill="none" stroke="#000000" d="M 1768 331 L 1818.919921875 331" stroke-miterlimit="10"/></g><g transform="translate(-102,-158) scale(1,1)"><g><path fill="none" stroke="none"/><text fill="#000000" stroke="none" font-family="Arial" font-size="13px" font-style="normal" font-weight="bold" text-decoration="none" x="1780.091796875" y="315.5">Coin</text></g></g><g transform="translate(-102,-158) scale(1,1)"><rect fill="#C0C0C0" stroke="none" x="1775" y="471" width="50.919921875" height="44" opacity="0.2"/></g><g transform="translate(-102,-158) scale(1,1)"><rect fill="#ffffff" stroke="none" x="1768" y="464" width="50.919921875" height="44"/></g><g transform="translate(-102,-158) scale(1,1)"><path fill="none" stroke="#000000" d="M 1768 464 L 1818.919921875 464 L 1818.919921875 508 L 1768 508 L 1768 464 Z Z" stroke-miterlimit="10"/></g><g transform="translate(-102,-158) scale(1,1)"><path fill="none" stroke="#000000" d="M 1768 489 L 1818.919921875 489" stroke-miterlimit="10"/></g><g transform="translate(-102,-158) scale(1,1)"><path fill="none" stroke="#000000" d="M 1768 499 L 1818.919921875 499" stroke-miterlimit="10"/></g><g transform="translate(-102,-158) scale(1,1)"><g><path fill="none" stroke="none"/><text fill="#000000" stroke="none" font-family="Arial" font-size="13px" font-style="normal" font-weight="bold" text-decoration="none" x="1775.39453125" y="483.5">Plants</text></g></g><g transform="translate(-102,-158) scale(1,1)"><path fill="none" stroke="#000000" d="M 1767 484 L 1417 461" stroke-miterlimit="10"/></g><g transform="translate(-102,-158) scale(1,1)"><path fill="#FFFFFF" stroke="none" d="M 1437.8336653696697 453.9318752653461 L 1417 461 L 1436.729544990011 470.73370712971865"/></g><g transform="translate(-102,-158) scale(1,1)"><path fill="none" stroke="#000000" d="M 1437.8336653696697 453.9318752653461 L 1417 461 L 1436.729544990011 470.73370712971865 L 1437.8336653696697 453.9318752653461" stroke-miterlimit="10"/></g><g transform="translate(-102,-158) scale(1,1)"><path fill="none" stroke="#000000" d="M 1767 326 L 1417 435" stroke-miterlimit="10"/></g><g transform="translate(-102,-158) scale(1,1)"><path fill="#FFFFFF" stroke="none" d="M 1433.9027092069111 420.91815276795694 L 1417 435 L 1438.909389970042 436.9946506312205"/></g><g transform="translate(-102,-158) scale(1,1)"><path fill="none" stroke="#000000" d="M 1433.9027092069111 420.91815276795694 L 1417 435 L 1438.909389970042 436.9946506312205 L 1433.9027092069111 420.91815276795694" stroke-miterlimit="10"/></g></g></svg>